<mxfile host="Electron" modified="2024-05-17T13:24:13.917Z" agent="Mozilla/5.0 (Windows NT 10.0; Win64; x64) AppleWebKit/537.36 (KHTML, like Gecko) draw.io/22.0.2 Chrome/114.0.5735.289 Electron/25.8.4 Safari/537.36" etag="RFWIuc5XcgrdzaRVEC1g" version="22.0.2" type="device" pages="2">
  <diagram name="main" id="x1REMOw4iqIByVdGiHRn">
    <mxGraphModel dx="500" dy="296" grid="1" gridSize="10" guides="1" tooltips="1" connect="1" arrows="1" fold="1" page="1" pageScale="1" pageWidth="827" pageHeight="1169" math="0" shadow="0">
      <root>
        <mxCell id="0" />
        <mxCell id="1" parent="0" />
        <mxCell id="dbx-VsM0S7J8vshtlEAp-3" value="" style="edgeStyle=orthogonalEdgeStyle;rounded=1;orthogonalLoop=1;jettySize=auto;html=1;labelBackgroundColor=none;strokeColor=#182E3E;fontColor=default;" edge="1" parent="1" source="dbx-VsM0S7J8vshtlEAp-1" target="dbx-VsM0S7J8vshtlEAp-2">
          <mxGeometry relative="1" as="geometry" />
        </mxCell>
        <mxCell id="dbx-VsM0S7J8vshtlEAp-1" value="" style="ellipse;fillColor=#F5AB50;html=1;labelBackgroundColor=none;strokeColor=#909090;fontColor=#1A1A1A;rounded=1;" vertex="1" parent="1">
          <mxGeometry x="384" y="70" width="30" height="30" as="geometry" />
        </mxCell>
        <mxCell id="dbx-VsM0S7J8vshtlEAp-7" style="edgeStyle=orthogonalEdgeStyle;rounded=1;orthogonalLoop=1;jettySize=auto;html=1;entryX=0.5;entryY=0;entryDx=0;entryDy=0;strokeColor=#182E3E;fontColor=#1A1A1A;curved=1;" edge="1" parent="1" source="dbx-VsM0S7J8vshtlEAp-2" target="dbx-VsM0S7J8vshtlEAp-4">
          <mxGeometry relative="1" as="geometry">
            <Array as="points">
              <mxPoint x="250" y="180" />
            </Array>
          </mxGeometry>
        </mxCell>
        <mxCell id="dbx-VsM0S7J8vshtlEAp-9" value="Attivazione&lt;br&gt;nastro" style="edgeLabel;html=1;align=center;verticalAlign=middle;resizable=0;points=[];fontColor=#1A1A1A;rounded=1;" vertex="1" connectable="0" parent="dbx-VsM0S7J8vshtlEAp-7">
          <mxGeometry x="0.1222" y="20" relative="1" as="geometry">
            <mxPoint x="-10" y="9" as="offset" />
          </mxGeometry>
        </mxCell>
        <mxCell id="dbx-VsM0S7J8vshtlEAp-2" value="Macchina Spenta" style="html=1;align=center;verticalAlign=top;rounded=1;absoluteArcSize=1;arcSize=10;dashed=0;whiteSpace=wrap;labelBackgroundColor=none;fillColor=#F5AB50;strokeColor=#909090;fontColor=#1A1A1A;" vertex="1" parent="1">
          <mxGeometry x="329" y="160" width="140" height="40" as="geometry" />
        </mxCell>
        <mxCell id="dbx-VsM0S7J8vshtlEAp-8" style="edgeStyle=orthogonalEdgeStyle;rounded=1;orthogonalLoop=1;jettySize=auto;html=1;exitX=1;exitY=0.5;exitDx=0;exitDy=0;entryX=0;entryY=0.5;entryDx=0;entryDy=0;strokeColor=#182E3E;fontColor=#1A1A1A;" edge="1" parent="1" source="dbx-VsM0S7J8vshtlEAp-4" target="dbx-VsM0S7J8vshtlEAp-5">
          <mxGeometry relative="1" as="geometry" />
        </mxCell>
        <mxCell id="dbx-VsM0S7J8vshtlEAp-10" value="Dopo 10pz" style="edgeLabel;html=1;align=center;verticalAlign=middle;resizable=0;points=[];" vertex="1" connectable="0" parent="dbx-VsM0S7J8vshtlEAp-8">
          <mxGeometry x="-0.274" relative="1" as="geometry">
            <mxPoint x="21" as="offset" />
          </mxGeometry>
        </mxCell>
        <mxCell id="dbx-VsM0S7J8vshtlEAp-13" style="edgeStyle=orthogonalEdgeStyle;rounded=0;orthogonalLoop=1;jettySize=auto;html=1;exitX=0.75;exitY=0;exitDx=0;exitDy=0;entryX=0.5;entryY=1;entryDx=0;entryDy=0;curved=1;" edge="1" parent="1" source="dbx-VsM0S7J8vshtlEAp-4" target="dbx-VsM0S7J8vshtlEAp-2">
          <mxGeometry relative="1" as="geometry">
            <Array as="points">
              <mxPoint x="399" y="280" />
            </Array>
          </mxGeometry>
        </mxCell>
        <mxCell id="3rBOvu0Iu4pQhV3tBHFl-1" value="Stop Emergenza" style="edgeLabel;html=1;align=center;verticalAlign=middle;resizable=0;points=[];fontColor=#1A1A1A;" vertex="1" connectable="0" parent="dbx-VsM0S7J8vshtlEAp-13">
          <mxGeometry x="0.0265" y="1" relative="1" as="geometry">
            <mxPoint y="-39" as="offset" />
          </mxGeometry>
        </mxCell>
        <mxCell id="dbx-VsM0S7J8vshtlEAp-4" value="Macchina Accesa" style="html=1;align=center;verticalAlign=top;rounded=1;absoluteArcSize=1;arcSize=10;dashed=0;whiteSpace=wrap;labelBackgroundColor=none;fillColor=#F5AB50;strokeColor=#909090;fontColor=#1A1A1A;" vertex="1" parent="1">
          <mxGeometry x="180" y="280" width="140" height="40" as="geometry" />
        </mxCell>
        <mxCell id="dbx-VsM0S7J8vshtlEAp-11" style="edgeStyle=orthogonalEdgeStyle;rounded=1;orthogonalLoop=1;jettySize=auto;html=1;entryX=0.5;entryY=1;entryDx=0;entryDy=0;curved=1;exitX=0.5;exitY=1;exitDx=0;exitDy=0;" edge="1" parent="1" source="dbx-VsM0S7J8vshtlEAp-5" target="dbx-VsM0S7J8vshtlEAp-4">
          <mxGeometry relative="1" as="geometry">
            <Array as="points">
              <mxPoint x="550" y="360" />
              <mxPoint x="250" y="360" />
            </Array>
          </mxGeometry>
        </mxCell>
        <mxCell id="dbx-VsM0S7J8vshtlEAp-12" value="Fine Manutezione" style="edgeLabel;html=1;align=center;verticalAlign=middle;resizable=0;points=[];" vertex="1" connectable="0" parent="dbx-VsM0S7J8vshtlEAp-11">
          <mxGeometry x="0.0018" y="-1" relative="1" as="geometry">
            <mxPoint as="offset" />
          </mxGeometry>
        </mxCell>
        <mxCell id="dbx-VsM0S7J8vshtlEAp-5" value="Manutenzione" style="html=1;align=center;verticalAlign=top;rounded=1;absoluteArcSize=1;arcSize=10;dashed=0;whiteSpace=wrap;labelBackgroundColor=none;fillColor=#F5AB50;strokeColor=#909090;fontColor=#1A1A1A;" vertex="1" parent="1">
          <mxGeometry x="480" y="280" width="140" height="40" as="geometry" />
        </mxCell>
      </root>
    </mxGraphModel>
  </diagram>
  <diagram id="h0w4nvfTeCLYUmlO-puA" name="funzione">
    <mxGraphModel dx="1000" dy="591" grid="1" gridSize="10" guides="1" tooltips="1" connect="1" arrows="1" fold="1" page="1" pageScale="1" pageWidth="827" pageHeight="1169" math="0" shadow="0">
      <root>
        <mxCell id="0" />
        <mxCell id="1" parent="0" />
        <mxCell id="h5L7FAvCfWacf6dCqXRW-27" style="edgeStyle=orthogonalEdgeStyle;rounded=0;orthogonalLoop=1;jettySize=auto;html=1;entryX=0.5;entryY=0;entryDx=0;entryDy=0;strokeColor=#182E3E;fontColor=#1A1A1A;" edge="1" parent="1" source="h5L7FAvCfWacf6dCqXRW-1" target="h5L7FAvCfWacf6dCqXRW-25">
          <mxGeometry relative="1" as="geometry" />
        </mxCell>
        <mxCell id="h5L7FAvCfWacf6dCqXRW-1" value="" style="ellipse;fillColor=strokeColor;html=1;strokeColor=#909090;fontColor=#1A1A1A;" vertex="1" parent="1">
          <mxGeometry x="330" y="20" width="30" height="30" as="geometry" />
        </mxCell>
        <mxCell id="h5L7FAvCfWacf6dCqXRW-34" style="edgeStyle=orthogonalEdgeStyle;rounded=0;orthogonalLoop=1;jettySize=auto;html=1;entryX=0.5;entryY=0;entryDx=0;entryDy=0;strokeColor=#182E3E;fontColor=#1A1A1A;" edge="1" parent="1" source="h5L7FAvCfWacf6dCqXRW-6" target="h5L7FAvCfWacf6dCqXRW-8">
          <mxGeometry relative="1" as="geometry" />
        </mxCell>
        <mxCell id="h5L7FAvCfWacf6dCqXRW-54" style="edgeStyle=orthogonalEdgeStyle;rounded=0;orthogonalLoop=1;jettySize=auto;html=1;strokeColor=#182E3E;fontColor=#1A1A1A;dashed=1;dashPattern=1 2;endArrow=none;endFill=0;entryX=0;entryY=0.5;entryDx=0;entryDy=0;" edge="1" parent="1" source="h5L7FAvCfWacf6dCqXRW-6" target="h5L7FAvCfWacf6dCqXRW-55">
          <mxGeometry relative="1" as="geometry">
            <mxPoint x="460" y="170" as="targetPoint" />
          </mxGeometry>
        </mxCell>
        <mxCell id="h5L7FAvCfWacf6dCqXRW-6" value="Attiva Azione" style="html=1;align=center;verticalAlign=top;rounded=1;absoluteArcSize=1;arcSize=10;dashed=0;whiteSpace=wrap;strokeColor=#909090;fontColor=#1A1A1A;fillColor=#F5AB50;" vertex="1" parent="1">
          <mxGeometry x="275" y="150" width="140" height="40" as="geometry" />
        </mxCell>
        <mxCell id="h5L7FAvCfWacf6dCqXRW-9" style="edgeStyle=orthogonalEdgeStyle;rounded=0;orthogonalLoop=1;jettySize=auto;html=1;strokeColor=#182E3E;fontColor=#1A1A1A;entryX=0.5;entryY=0;entryDx=0;entryDy=0;" edge="1" parent="1" source="h5L7FAvCfWacf6dCqXRW-8" target="h5L7FAvCfWacf6dCqXRW-15">
          <mxGeometry relative="1" as="geometry">
            <mxPoint x="470" y="265" as="targetPoint" />
          </mxGeometry>
        </mxCell>
        <mxCell id="h5L7FAvCfWacf6dCqXRW-10" value="Temporizzata" style="edgeLabel;html=1;align=center;verticalAlign=middle;resizable=0;points=[];fontColor=#1A1A1A;" vertex="1" connectable="0" parent="h5L7FAvCfWacf6dCqXRW-9">
          <mxGeometry x="-0.1283" y="2" relative="1" as="geometry">
            <mxPoint x="-9" y="2" as="offset" />
          </mxGeometry>
        </mxCell>
        <mxCell id="h5L7FAvCfWacf6dCqXRW-11" style="edgeStyle=orthogonalEdgeStyle;rounded=0;orthogonalLoop=1;jettySize=auto;html=1;exitX=0;exitY=0.5;exitDx=0;exitDy=0;strokeColor=#182E3E;fontColor=#1A1A1A;entryX=0.5;entryY=0;entryDx=0;entryDy=0;" edge="1" parent="1" source="h5L7FAvCfWacf6dCqXRW-8" target="h5L7FAvCfWacf6dCqXRW-14">
          <mxGeometry relative="1" as="geometry">
            <mxPoint x="220" y="265" as="targetPoint" />
          </mxGeometry>
        </mxCell>
        <mxCell id="h5L7FAvCfWacf6dCqXRW-13" value="Trigger" style="edgeLabel;html=1;align=center;verticalAlign=middle;resizable=0;points=[];fontColor=#1A1A1A;" vertex="1" connectable="0" parent="h5L7FAvCfWacf6dCqXRW-11">
          <mxGeometry x="-0.1547" y="-1" relative="1" as="geometry">
            <mxPoint x="6" y="1" as="offset" />
          </mxGeometry>
        </mxCell>
        <mxCell id="h5L7FAvCfWacf6dCqXRW-8" value="" style="rhombus;strokeColor=#909090;fontColor=#1A1A1A;fillColor=#F5AB50;" vertex="1" parent="1">
          <mxGeometry x="330" y="250" width="30" height="30" as="geometry" />
        </mxCell>
        <mxCell id="h5L7FAvCfWacf6dCqXRW-41" style="edgeStyle=orthogonalEdgeStyle;rounded=0;orthogonalLoop=1;jettySize=auto;html=1;strokeColor=#182E3E;fontColor=#1A1A1A;exitX=0.5;exitY=1;exitDx=0;exitDy=0;entryX=0.5;entryY=0;entryDx=0;entryDy=0;" edge="1" parent="1" source="h5L7FAvCfWacf6dCqXRW-14" target="h5L7FAvCfWacf6dCqXRW-39">
          <mxGeometry relative="1" as="geometry">
            <mxPoint x="330" y="425" as="targetPoint" />
            <Array as="points">
              <mxPoint x="205" y="395" />
              <mxPoint x="345" y="395" />
            </Array>
          </mxGeometry>
        </mxCell>
        <mxCell id="h5L7FAvCfWacf6dCqXRW-14" value="Controllo Trigger" style="html=1;align=center;verticalAlign=top;rounded=1;absoluteArcSize=1;arcSize=10;dashed=0;whiteSpace=wrap;strokeColor=#909090;fontColor=#1A1A1A;fillColor=#F5AB50;" vertex="1" parent="1">
          <mxGeometry x="135" y="320" width="140" height="40" as="geometry" />
        </mxCell>
        <mxCell id="h5L7FAvCfWacf6dCqXRW-40" style="edgeStyle=orthogonalEdgeStyle;rounded=0;orthogonalLoop=1;jettySize=auto;html=1;entryX=0.5;entryY=0;entryDx=0;entryDy=0;strokeColor=#182E3E;fontColor=#1A1A1A;" edge="1" parent="1" source="h5L7FAvCfWacf6dCqXRW-15" target="h5L7FAvCfWacf6dCqXRW-39">
          <mxGeometry relative="1" as="geometry">
            <Array as="points">
              <mxPoint x="485" y="395" />
              <mxPoint x="345" y="395" />
            </Array>
          </mxGeometry>
        </mxCell>
        <mxCell id="h5L7FAvCfWacf6dCqXRW-15" value="Controllo Temporizzatore" style="html=1;align=center;verticalAlign=top;rounded=1;absoluteArcSize=1;arcSize=10;dashed=0;whiteSpace=wrap;strokeColor=#909090;fontColor=#1A1A1A;fillColor=#F5AB50;" vertex="1" parent="1">
          <mxGeometry x="415" y="320" width="140" height="40" as="geometry" />
        </mxCell>
        <mxCell id="h5L7FAvCfWacf6dCqXRW-33" value="" style="edgeStyle=orthogonalEdgeStyle;rounded=0;orthogonalLoop=1;jettySize=auto;html=1;strokeColor=#182E3E;fontColor=#1A1A1A;" edge="1" parent="1" source="h5L7FAvCfWacf6dCqXRW-25" target="h5L7FAvCfWacf6dCqXRW-6">
          <mxGeometry relative="1" as="geometry" />
        </mxCell>
        <mxCell id="h5L7FAvCfWacf6dCqXRW-37" value="Azione Disattiva&lt;br&gt;" style="edgeLabel;html=1;align=center;verticalAlign=middle;resizable=0;points=[];fontColor=#1A1A1A;" vertex="1" connectable="0" parent="h5L7FAvCfWacf6dCqXRW-33">
          <mxGeometry x="-0.3814" y="2" relative="1" as="geometry">
            <mxPoint x="-2" as="offset" />
          </mxGeometry>
        </mxCell>
        <mxCell id="h5L7FAvCfWacf6dCqXRW-35" style="edgeStyle=orthogonalEdgeStyle;rounded=0;orthogonalLoop=1;jettySize=auto;html=1;entryX=0.5;entryY=0;entryDx=0;entryDy=0;strokeColor=#182E3E;fontColor=#1A1A1A;exitX=0;exitY=0.5;exitDx=0;exitDy=0;" edge="1" parent="1" source="h5L7FAvCfWacf6dCqXRW-25" target="h5L7FAvCfWacf6dCqXRW-8">
          <mxGeometry relative="1" as="geometry">
            <Array as="points">
              <mxPoint x="210" y="95" />
              <mxPoint x="210" y="230" />
              <mxPoint x="345" y="230" />
            </Array>
          </mxGeometry>
        </mxCell>
        <mxCell id="h5L7FAvCfWacf6dCqXRW-36" value="Azione Attiva" style="edgeLabel;html=1;align=center;verticalAlign=middle;resizable=0;points=[];fontColor=#1A1A1A;" vertex="1" connectable="0" parent="h5L7FAvCfWacf6dCqXRW-35">
          <mxGeometry x="-0.6545" y="-1" relative="1" as="geometry">
            <mxPoint as="offset" />
          </mxGeometry>
        </mxCell>
        <mxCell id="h5L7FAvCfWacf6dCqXRW-25" value="" style="rhombus;strokeColor=#909090;fontColor=#1A1A1A;fillColor=#F5AB50;" vertex="1" parent="1">
          <mxGeometry x="330" y="80" width="30" height="30" as="geometry" />
        </mxCell>
        <mxCell id="h5L7FAvCfWacf6dCqXRW-45" style="edgeStyle=orthogonalEdgeStyle;rounded=0;orthogonalLoop=1;jettySize=auto;html=1;strokeColor=#182E3E;fontColor=#1A1A1A;" edge="1" parent="1" source="h5L7FAvCfWacf6dCqXRW-39" target="h5L7FAvCfWacf6dCqXRW-44">
          <mxGeometry relative="1" as="geometry" />
        </mxCell>
        <mxCell id="h5L7FAvCfWacf6dCqXRW-53" value="continua&lt;br&gt;azione&lt;br&gt;" style="edgeLabel;html=1;align=center;verticalAlign=middle;resizable=0;points=[];fontColor=#1A1A1A;" vertex="1" connectable="0" parent="h5L7FAvCfWacf6dCqXRW-45">
          <mxGeometry x="-0.219" y="1" relative="1" as="geometry">
            <mxPoint x="-1" y="15" as="offset" />
          </mxGeometry>
        </mxCell>
        <mxCell id="h5L7FAvCfWacf6dCqXRW-48" style="edgeStyle=orthogonalEdgeStyle;rounded=0;orthogonalLoop=1;jettySize=auto;html=1;entryX=0.5;entryY=0;entryDx=0;entryDy=0;strokeColor=#182E3E;fontColor=#1A1A1A;" edge="1" parent="1" source="h5L7FAvCfWacf6dCqXRW-39" target="h5L7FAvCfWacf6dCqXRW-47">
          <mxGeometry relative="1" as="geometry">
            <Array as="points">
              <mxPoint x="485" y="445" />
            </Array>
          </mxGeometry>
        </mxCell>
        <mxCell id="h5L7FAvCfWacf6dCqXRW-52" value="fine azione" style="edgeLabel;html=1;align=center;verticalAlign=middle;resizable=0;points=[];fontColor=#1A1A1A;" vertex="1" connectable="0" parent="h5L7FAvCfWacf6dCqXRW-48">
          <mxGeometry x="-0.2416" y="2" relative="1" as="geometry">
            <mxPoint y="2" as="offset" />
          </mxGeometry>
        </mxCell>
        <mxCell id="h5L7FAvCfWacf6dCqXRW-39" value="" style="rhombus;strokeColor=#909090;fontColor=#1A1A1A;fillColor=#F5AB50;" vertex="1" parent="1">
          <mxGeometry x="330" y="430" width="30" height="30" as="geometry" />
        </mxCell>
        <mxCell id="h5L7FAvCfWacf6dCqXRW-44" value="" style="ellipse;html=1;shape=endState;fillColor=strokeColor;strokeColor=#909090;fontColor=#1A1A1A;" vertex="1" parent="1">
          <mxGeometry x="330" y="550" width="30" height="30" as="geometry" />
        </mxCell>
        <mxCell id="h5L7FAvCfWacf6dCqXRW-47" value="Disattiva Azione" style="html=1;align=center;verticalAlign=top;rounded=1;absoluteArcSize=1;arcSize=10;dashed=0;whiteSpace=wrap;strokeColor=#909090;fontColor=#1A1A1A;fillColor=#F5AB50;" vertex="1" parent="1">
          <mxGeometry x="415" y="540" width="140" height="40" as="geometry" />
        </mxCell>
        <mxCell id="h5L7FAvCfWacf6dCqXRW-50" style="edgeStyle=orthogonalEdgeStyle;rounded=0;orthogonalLoop=1;jettySize=auto;html=1;strokeColor=#182E3E;fontColor=#1A1A1A;" edge="1" parent="1" source="h5L7FAvCfWacf6dCqXRW-47" target="h5L7FAvCfWacf6dCqXRW-44">
          <mxGeometry relative="1" as="geometry">
            <Array as="points">
              <mxPoint x="480" y="565" />
            </Array>
          </mxGeometry>
        </mxCell>
        <mxCell id="h5L7FAvCfWacf6dCqXRW-55" value="Attivazione azione e reset del temporizzatore" style="html=1;align=left;verticalAlign=middle;rounded=1;absoluteArcSize=1;arcSize=10;dashed=1;whiteSpace=wrap;strokeColor=#909090;fontColor=#1A1A1A;fillColor=default;fontSize=9;fontStyle=2;dashPattern=12 12;gradientColor=none;gradientDirection=north;" vertex="1" parent="1">
          <mxGeometry x="460" y="145" width="80" height="50" as="geometry" />
        </mxCell>
        <mxCell id="h5L7FAvCfWacf6dCqXRW-56" style="edgeStyle=orthogonalEdgeStyle;rounded=0;orthogonalLoop=1;jettySize=auto;html=1;strokeColor=#182E3E;fontColor=#1A1A1A;dashed=1;dashPattern=1 2;endArrow=none;endFill=0;entryX=0;entryY=0.5;entryDx=0;entryDy=0;exitX=1;exitY=0.5;exitDx=0;exitDy=0;" edge="1" parent="1" target="h5L7FAvCfWacf6dCqXRW-57" source="h5L7FAvCfWacf6dCqXRW-15">
          <mxGeometry relative="1" as="geometry">
            <mxPoint x="635" y="330" as="targetPoint" />
            <mxPoint x="590" y="330" as="sourcePoint" />
          </mxGeometry>
        </mxCell>
        <mxCell id="h5L7FAvCfWacf6dCqXRW-57" value="incremento e controllo del temporizzatore&amp;nbsp;" style="html=1;align=left;verticalAlign=middle;rounded=1;absoluteArcSize=1;arcSize=10;dashed=1;whiteSpace=wrap;strokeColor=#909090;fontColor=#1A1A1A;fillColor=default;fontSize=9;fontStyle=2;dashPattern=12 12;gradientColor=none;gradientDirection=north;" vertex="1" parent="1">
          <mxGeometry x="590" y="280" width="100" height="40" as="geometry" />
        </mxCell>
        <mxCell id="h5L7FAvCfWacf6dCqXRW-62" style="edgeStyle=orthogonalEdgeStyle;rounded=0;orthogonalLoop=1;jettySize=auto;html=1;strokeColor=#182E3E;fontColor=#1A1A1A;startArrow=none;startFill=0;endArrow=none;endFill=0;dashed=1;dashPattern=1 4;exitX=1;exitY=0.5;exitDx=0;exitDy=0;" edge="1" parent="1" source="h5L7FAvCfWacf6dCqXRW-61">
          <mxGeometry relative="1" as="geometry">
            <mxPoint x="260" y="260" as="targetPoint" />
            <Array as="points">
              <mxPoint x="155" y="250" />
              <mxPoint x="260" y="250" />
            </Array>
          </mxGeometry>
        </mxCell>
        <mxCell id="h5L7FAvCfWacf6dCqXRW-61" value="trigger e temporizzata sono una unica variabile: se è 0&amp;nbsp; trigger&amp;nbsp; mentre se è 1 temporizzata" style="html=1;align=left;verticalAlign=middle;rounded=1;absoluteArcSize=1;arcSize=10;dashed=1;whiteSpace=wrap;strokeColor=#909090;fontColor=#1A1A1A;fillColor=default;fontSize=9;fontStyle=2;dashPattern=12 12;gradientColor=none;gradientDirection=north;" vertex="1" parent="1">
          <mxGeometry x="50" y="220" width="115" height="50" as="geometry" />
        </mxCell>
      </root>
    </mxGraphModel>
  </diagram>
</mxfile>
